<mxfile host="app.diagrams.net" modified="2023-11-14T09:33:49.456Z" agent="Mozilla/5.0 (Macintosh; Intel Mac OS X 10_15_7) AppleWebKit/537.36 (KHTML, like Gecko) Chrome/119.0.0.0 Safari/537.36" version="21.1.7" etag="eRfeWw7txWf44RWWYBn_" type="github">
  <diagram name="Page-1" id="HTXQcy9zwrsHVjs8Yv19">
    <mxGraphModel>
      <root>
        <mxCell id="0" />
        <mxCell id="1" parent="0" />
      </root>
    </mxGraphModel>
  </diagram>
</mxfile>
